<svg xmlns="http://www.w3.org/2000/svg" viewBox="0 0 128 128" width="128" height="128">
  <circle cx="64" cy="64" r="64" fill="#222"/>
  <path fill="white" d="M64 20c-24.26 0-44 19.74-44 44 0 19.45 12.6 35.95 30.08 41.77 2.2.4 3.01-.96 3.01-2.13 0-1.05-.04-4.52-.06-8.87-12.24 2.66-14.82-5.9-15.77-11.32-.53-1.35-2.82-5.52-4.82-6.64-1.65-.89-4.01-3.08-.06-3.14 3.72-.06 6.38 3.42 7.27 4.84 4.25 7.14 11.04 5.13 13.75 3.9.42-3.04 1.66-5.13 3.02-6.31-10.51-1.19-21.52-5.26-21.52-23.36 0-5.16 1.84-9.41 4.86-12.73-.49-1.19-2.11-6.03.46-12.57 0 0 3.96-1.27 13 4.86 3.77-1.05 7.81-1.57 11.83-1.59 4.01.02 8.06.54 11.83 1.59 9.04-6.16 13-4.86 13-4.86 2.57 6.54.95 11.38.46 12.57 3.02 3.32 4.86 7.54 4.86 12.73 0 18.16-11.04 22.16-21.56 23.33 1.7 1.47 3.21 4.34 3.21 8.75 0 6.32-.06 11.42-.06 12.98 0 1.18.8 2.56 3.02 2.12C95.42 99.93 108 83.44 108 64c0-24.26-19.74-44-44-44z"/>
</svg>
